<svg width="2746" height="2032" viewBox="0 0 2746 2032" fill="none" xmlns="http://www.w3.org/2000/svg">
<path d="M759.95 1476C754.306 1466.54 747.998 1456.41 741.026 1445.62C734.054 1434.67 726.833 1423.71 719.363 1412.75C711.893 1401.63 704.257 1390.92 696.455 1380.63C688.819 1370.17 681.515 1360.8 674.543 1352.5V1476H643.667V1303.44H669.314C675.954 1310.41 683.092 1318.71 690.728 1328.34C698.364 1337.8 706 1347.68 713.636 1357.97C721.438 1368.27 728.908 1378.64 736.046 1389.1C743.35 1399.39 749.824 1409.02 755.468 1417.98V1303.44H786.593V1476H759.95ZM944.268 1410.76C944.268 1421.05 942.774 1430.43 939.786 1438.9C936.798 1447.36 932.565 1454.59 927.087 1460.56C921.609 1466.54 914.969 1471.19 907.167 1474.51C899.531 1477.83 891.065 1479.49 881.769 1479.49C872.473 1479.49 864.007 1477.83 856.371 1474.51C848.735 1471.19 842.178 1466.54 836.7 1460.56C831.222 1454.59 826.906 1447.36 823.752 1438.9C820.764 1430.43 819.27 1421.05 819.27 1410.76C819.27 1400.47 820.764 1391.17 823.752 1382.87C826.906 1374.41 831.222 1367.19 836.7 1361.21C842.344 1355.23 848.984 1350.67 856.62 1347.52C864.256 1344.2 872.639 1342.54 881.769 1342.54C890.899 1342.54 899.282 1344.2 906.918 1347.52C914.72 1350.67 921.36 1355.23 926.838 1361.21C932.316 1367.19 936.549 1374.41 939.537 1382.87C942.691 1391.17 944.268 1400.47 944.268 1410.76ZM913.392 1410.76C913.392 1397.81 910.57 1387.6 904.926 1380.13C899.448 1372.5 891.729 1368.68 881.769 1368.68C871.809 1368.68 864.007 1372.5 858.363 1380.13C852.885 1387.6 850.146 1397.81 850.146 1410.76C850.146 1423.88 852.885 1434.25 858.363 1441.89C864.007 1449.52 871.809 1453.34 881.769 1453.34C891.729 1453.34 899.448 1449.52 904.926 1441.89C910.57 1434.25 913.392 1423.88 913.392 1410.76ZM968.087 1411.01C968.087 1401.38 969.581 1392.42 972.569 1384.12C975.557 1375.65 979.79 1368.35 985.268 1362.21C990.912 1356.06 997.718 1351.25 1005.69 1347.76C1013.65 1344.28 1022.62 1342.54 1032.58 1342.54C1044.86 1342.54 1056.48 1344.78 1067.44 1349.26L1060.96 1373.91C1057.48 1372.42 1053.49 1371.17 1049.01 1370.17C1044.7 1369.18 1040.05 1368.68 1035.07 1368.68C1023.28 1368.68 1014.32 1372.42 1008.18 1379.89C1002.03 1387.19 998.963 1397.56 998.963 1411.01C998.963 1423.96 1001.87 1434.25 1007.68 1441.89C1013.49 1449.36 1023.28 1453.09 1037.06 1453.09C1042.21 1453.09 1047.27 1452.59 1052.25 1451.6C1057.23 1450.6 1061.54 1449.36 1065.2 1447.86L1069.43 1472.76C1066.11 1474.42 1061.05 1475.92 1054.24 1477.25C1047.6 1478.57 1040.71 1479.24 1033.57 1479.24C1022.45 1479.24 1012.74 1477.58 1004.44 1474.26C996.307 1470.77 989.501 1466.04 984.023 1460.06C978.711 1453.92 974.727 1446.7 972.071 1438.4C969.415 1429.93 968.087 1420.8 968.087 1411.01ZM1091.26 1311.41L1121.39 1306.43V1345.77H1167.71V1370.92H1121.39V1423.96C1121.39 1434.42 1123.05 1441.89 1126.37 1446.37C1129.69 1450.85 1135.34 1453.09 1143.3 1453.09C1148.78 1453.09 1153.6 1452.51 1157.75 1451.35C1162.06 1450.19 1165.46 1449.11 1167.95 1448.11L1172.93 1472.02C1169.45 1473.51 1164.88 1475 1159.24 1476.5C1153.6 1478.16 1146.96 1478.99 1139.32 1478.99C1130.02 1478.99 1122.22 1477.74 1115.91 1475.25C1109.77 1472.76 1104.87 1469.19 1101.22 1464.55C1097.57 1459.73 1095 1454 1093.5 1447.36C1092.01 1440.56 1091.26 1432.84 1091.26 1424.21V1311.41ZM1227.21 1476H1197.08V1345.77H1227.21V1476ZM1230.45 1307.68C1230.45 1313.32 1228.62 1317.8 1224.97 1321.12C1221.32 1324.44 1217 1326.1 1212.02 1326.1C1206.87 1326.1 1202.47 1324.44 1198.82 1321.12C1195.17 1317.8 1193.34 1313.32 1193.34 1307.68C1193.34 1301.87 1195.17 1297.3 1198.82 1293.98C1202.47 1290.66 1206.87 1289 1212.02 1289C1217 1289 1221.32 1290.66 1224.97 1293.98C1228.62 1297.3 1230.45 1301.87 1230.45 1307.68ZM1666.78 1448.86V1476H1557.72V1303.44H1589.09V1448.86H1666.78ZM1796.06 1472.02C1790.25 1473.51 1782.7 1475 1773.4 1476.5C1764.1 1478.16 1753.89 1478.99 1742.77 1478.99C1732.31 1478.99 1723.52 1477.49 1716.38 1474.51C1709.41 1471.52 1703.76 1467.37 1699.45 1462.06C1695.3 1456.74 1692.31 1450.44 1690.48 1443.13C1688.66 1435.66 1687.74 1427.53 1687.74 1418.73V1345.77H1717.87V1414C1717.87 1427.94 1719.86 1437.9 1723.85 1443.88C1728 1449.85 1735.14 1452.84 1745.26 1452.84C1748.91 1452.84 1752.73 1452.68 1756.72 1452.34C1760.87 1452.01 1763.94 1451.6 1765.93 1451.1V1345.77H1796.06V1472.02ZM1908.61 1407.52C1908.61 1393.91 1906.87 1384.12 1903.38 1378.14C1900.06 1372 1893.75 1368.93 1884.46 1368.93C1881.14 1368.93 1877.48 1369.18 1873.5 1369.68C1869.52 1370.17 1866.53 1370.59 1864.54 1370.92V1476H1834.41V1350.01C1840.22 1348.35 1847.77 1346.77 1857.07 1345.27C1866.53 1343.78 1876.49 1343.03 1886.95 1343.03C1895.91 1343.03 1903.21 1344.2 1908.86 1346.52C1914.67 1348.84 1919.48 1351.91 1923.3 1355.73C1925.13 1354.4 1927.45 1352.99 1930.27 1351.5C1933.09 1350.01 1936.25 1348.68 1939.73 1347.52C1943.22 1346.19 1946.87 1345.11 1950.69 1344.28C1954.67 1343.45 1958.66 1343.03 1962.64 1343.03C1972.77 1343.03 1981.07 1344.53 1987.54 1347.52C1994.18 1350.34 1999.33 1354.4 2002.98 1359.72C2006.8 1364.86 2009.37 1371.17 2010.7 1378.64C2012.19 1385.94 2012.94 1394 2012.94 1402.79V1476H1982.81V1407.52C1982.81 1393.91 1981.15 1384.12 1977.83 1378.14C1974.51 1372 1968.12 1368.93 1958.66 1368.93C1953.84 1368.93 1949.28 1369.76 1944.96 1371.42C1940.65 1372.91 1937.41 1374.41 1935.25 1375.9C1936.58 1380.05 1937.49 1384.45 1937.99 1389.1C1938.49 1393.75 1938.74 1398.73 1938.74 1404.04V1476H1908.61V1407.52ZM2042.63 1411.51C2042.63 1400.05 2044.29 1390.01 2047.61 1381.38C2051.09 1372.75 2055.66 1365.61 2061.3 1359.97C2066.95 1354.16 2073.42 1349.84 2080.73 1347.02C2088.03 1344.03 2095.5 1342.54 2103.14 1342.54C2121.06 1342.54 2135.01 1348.1 2144.97 1359.22C2155.09 1370.34 2160.16 1386.94 2160.16 1409.02C2160.16 1410.68 2160.07 1412.59 2159.91 1414.75C2159.91 1416.74 2159.82 1418.56 2159.66 1420.22H2073.75C2074.58 1430.68 2078.24 1438.82 2084.71 1444.63C2091.35 1450.27 2100.89 1453.09 2113.34 1453.09C2120.65 1453.09 2127.29 1452.43 2133.26 1451.1C2139.41 1449.77 2144.22 1448.36 2147.71 1446.87L2151.69 1471.52C2150.03 1472.35 2147.71 1473.26 2144.72 1474.26C2141.9 1475.09 2138.58 1475.83 2134.76 1476.5C2131.11 1477.33 2127.12 1477.99 2122.81 1478.49C2118.49 1478.99 2114.09 1479.24 2109.61 1479.24C2098.16 1479.24 2088.2 1477.58 2079.73 1474.26C2071.26 1470.77 2064.29 1466.04 2058.81 1460.06C2053.34 1453.92 2049.27 1446.78 2046.61 1438.65C2043.96 1430.35 2042.63 1421.3 2042.63 1411.51ZM2130.03 1398.06C2130.03 1393.91 2129.45 1390.01 2128.28 1386.36C2127.12 1382.54 2125.38 1379.3 2123.06 1376.65C2120.9 1373.83 2118.16 1371.67 2114.84 1370.17C2111.68 1368.51 2107.87 1367.68 2103.38 1367.68C2098.74 1367.68 2094.67 1368.6 2091.18 1370.42C2087.7 1372.08 2084.71 1374.32 2082.22 1377.15C2079.9 1379.97 2078.07 1383.21 2076.74 1386.86C2075.41 1390.51 2074.5 1394.24 2074 1398.06H2130.03ZM2192.1 1350.01C2197.91 1348.35 2205.46 1346.77 2214.76 1345.27C2224.06 1343.78 2234.35 1343.03 2245.64 1343.03C2256.26 1343.03 2265.14 1344.53 2272.28 1347.52C2279.42 1350.34 2285.06 1354.4 2289.21 1359.72C2293.53 1364.86 2296.51 1371.17 2298.17 1378.64C2300 1385.94 2300.91 1394 2300.91 1402.79V1476H2270.78V1407.52C2270.78 1400.55 2270.29 1394.66 2269.29 1389.85C2268.46 1384.87 2266.97 1380.88 2264.81 1377.89C2262.82 1374.74 2259.99 1372.5 2256.34 1371.17C2252.86 1369.68 2248.54 1368.93 2243.39 1368.93C2239.58 1368.93 2235.59 1369.18 2231.44 1369.68C2227.29 1370.17 2224.22 1370.59 2222.23 1370.92V1476H2192.1V1350.01Z" fill="#293039"/>
<path d="M1073.5 668.5L1124.5 717.5M956 924.5H1032.5M1114.5 1137.5L1063.5 1184.5M1331 561V623.5" stroke="black" stroke-width="17" stroke-linecap="round"/>
<path d="M1670 932.5C1670 1073.85 1552.12 1189 1406 1189C1259.88 1189 1142 1073.85 1142 932.5C1142 791.148 1259.88 676 1406 676C1552.12 676 1670 791.148 1670 932.5Z" stroke="#293039" stroke-width="24"/>
<path d="M1297 1388L1402.75 1369.5L1508.5 1351M1297 1343L1348.25 1333L1399.5 1323M1406 1416L1457.25 1406L1508.5 1396" stroke="#293039" stroke-width="17" stroke-linecap="round"/>
<path d="M1534 1162.5L1526 1253.5L1502.5 1287H1302.5L1281.5 1253.5L1270 1162.5" stroke="#293039" stroke-width="20"/>
<path d="M1348.05 1437.12C1348.06 1443.43 1349.66 1449.67 1352.76 1455.49C1355.86 1461.31 1360.4 1466.59 1366.12 1471.05C1371.84 1475.5 1378.63 1479.03 1386.1 1481.43C1393.57 1483.83 1401.58 1485.07 1409.67 1485.06C1417.75 1485.05 1425.75 1483.8 1433.22 1481.38C1440.69 1478.96 1447.47 1475.42 1453.18 1470.95C1458.89 1466.49 1463.42 1461.19 1466.51 1455.37C1469.6 1449.54 1471.18 1443.3 1471.18 1436.99L1409.61 1437.06L1348.05 1437.12Z" fill="#293039"/>
<path d="M1454.5 1111.5C1454.5 1132.21 1437.04 1149 1415.5 1149C1393.96 1149 1376.5 1132.21 1376.5 1111.5C1376.5 1090.79 1393.96 1074 1415.5 1074C1437.04 1074 1454.5 1090.79 1454.5 1111.5Z" fill="#62FCAF"/>
<path d="M1365 990.5C1365 1016.73 1342.84 1038 1315.5 1038C1288.16 1038 1266 1016.73 1266 990.5C1266 964.266 1288.16 943 1315.5 943C1342.84 943 1365 964.266 1365 990.5Z" fill="#62FCAF"/>
<path d="M1452.5 855.5C1452.5 876.763 1434.37 894 1412 894C1389.63 894 1371.5 876.763 1371.5 855.5C1371.5 834.237 1389.63 817 1412 817C1434.37 817 1452.5 834.237 1452.5 855.5Z" fill="#62FCAF"/>
<path d="M1644 923C1644 863.592 1618.87 806.616 1574.14 764.608C1529.42 722.6 1468.75 699 1405.5 699C1342.25 699 1281.58 722.6 1236.86 764.608C1192.13 806.616 1167 863.591 1167 923C1167 880.33 1267.19 823.172 1299.32 793C1335.8 774 1360.07 787 1405.5 787C1450.93 787 1478.96 776.607 1515.49 798.5C1547.62 828.672 1644 880.33 1644 923Z" fill="#C3EDEF"/>
<path d="M1279.93 1254.5L1266 1149C1363.22 1196.65 1422.12 1203.02 1539 1161L1533.84 1254.5L1507.52 1287H1302.64L1279.93 1254.5Z" fill="#293039" stroke="#293039" stroke-width="17" stroke-linecap="round"/>
</svg>
