<svg width="70" height="106" fill="none" xmlns="http://www.w3.org/2000/svg"><path d="M68 32.5C68 49.208 53.368 63 35 63 16.632 63 2 49.208 2 32.5S16.632 2 35 2c18.368 0 33 13.792 33 30.5Z" stroke="#fff" stroke-width="4"/><path d="M21 88.882 35 85.5l14-3.382m-28-1.462 6.785-1.828L34.57 77m.86 17 6.785-1.828L49 90.344" stroke="#fff" stroke-width="3" stroke-linecap="round"/><path d="M26.01 98.009c0 .918.234 1.828.688 2.676.453.848 1.116 1.619 1.951 2.267a9.497 9.497 0 0 0 2.92 1.514c1.09.351 2.26.53 3.44.529a11.233 11.233 0 0 0 3.44-.535 9.473 9.473 0 0 0 2.915-1.518c.834-.65 1.495-1.422 1.946-2.271.45-.849.682-1.759.68-2.677l-8.99.007-8.99.008Z" fill="#fff"/><path d="M40.5 49.5c0 2.16-1.964 4-4.5 4s-4.5-1.84-4.5-4 1.964-4 4.5-4 4.5 1.84 4.5 4ZM26.5 39a4.5 4.5 0 1 1-9 0 4.5 4.5 0 0 1 9 0Zm13-15c0 1.88-1.734 3.5-4 3.5s-4-1.62-4-3.5 1.734-3.5 4-3.5 4 1.62 4 3.5Z" stroke="#62FCAF"/><path d="M61 30c0-5.835-2.74-11.43-7.615-15.556C48.509 10.318 41.895 8 35 8c-6.896 0-13.509 2.318-18.385 6.444C11.74 18.569 9 24.165 9 30c0-4.19 10.922-9.805 14.425-12.768 3.977-1.866 6.622-.59 11.575-.59 4.953 0 8.008-1.02 11.99 1.13C50.494 20.736 61 25.81 61 30Z" fill="#C3EDEF"/><path d="M16.94 70.996 15 58c13.532 5.87 21.731 6.655 38 1.478l-.718 11.518L48.618 75H20.1l-3.16-4.004Z" fill="#fff"/></svg>